<svg width="120" height="120" viewBox="0 0 120 120" xmlns="http://www.w3.org/2000/svg">
  <defs>
    <!-- Night sky gradient for the T -->
    <radialGradient id="nightSkyGradient" cx="50%" cy="30%" r="70%">
      <stop offset="0%" style="stop-color:#4a5568;stop-opacity:1" />
      <stop offset="50%" style="stop-color:#2d3748;stop-opacity:1" />
      <stop offset="100%" style="stop-color:#1a202c;stop-opacity:1" />
    </radialGradient>
    
    <!-- Star sparkle filter -->
    <filter id="sparkle">
      <feGaussianBlur stdDeviation="0.8" result="coloredBlur"/>
      <feMerge> 
        <feMergeNode in="coloredBlur"/>
        <feMergeNode in="SourceGraphic"/>
      </feMerge>
    </filter>
  </defs>
  
  <!-- Pure black circular background -->
  <circle cx="60" cy="60" r="60" fill="#000000"/>
  
  <!-- Letter T filled with night sky gradient -->
  <path d="M 35 35 
           L 85 35 
           L 85 43 
           L 64 43 
           L 64 85 
           L 56 85 
           L 56 43 
           L 35 43 
           Z" 
        fill="url(#nightSkyGradient)" 
        stroke="none"/>
  
  <!-- Stars inside the T -->
  <circle cx="60" cy="38" r="0.8" fill="#ffffff" filter="url(#sparkle)" opacity="0.9"/>
  <circle cx="45" cy="40" r="0.6" fill="#e2e8f0" filter="url(#sparkle)" opacity="0.8"/>
  <circle cx="70" cy="39" r="0.5" fill="#ffffff" opacity="0.7"/>
  <circle cx="58" cy="50" r="0.7" fill="#f7fafc" filter="url(#sparkle)" opacity="0.8"/>
  <circle cx="62" cy="42" r="0.4" fill="#e2e8f0" opacity="0.6"/>
  <circle cx="60" cy="65" r="0.9" fill="#ffffff" filter="url(#sparkle)" opacity="0.9"/>
  <circle cx="58" cy="75" r="0.6" fill="#f7fafc" filter="url(#sparkle)" opacity="0.7"/>
  <circle cx="62" cy="80" r="0.5" fill="#e2e8f0" opacity="0.8"/>
  <circle cx="59" cy="58" r="0.4" fill="#ffffff" opacity="0.6"/>
  <circle cx="61" cy="70" r="0.5" fill="#f7fafc" opacity="0.7"/>
  
  <!-- Additional tiny stars for more sparkle -->
  <circle cx="57" cy="45" r="0.3" fill="#ffffff" opacity="0.5"/>
  <circle cx="63" cy="55" r="0.3" fill="#e2e8f0" opacity="0.6"/>
  <circle cx="59" cy="82" r="0.3" fill="#ffffff" opacity="0.5"/>
  <circle cx="61" cy="48" r="0.3" fill="#f7fafc" opacity="0.4"/>
</svg>