<svg width="206" height="201" viewBox="0 0 206 201" fill="none" xmlns="http://www.w3.org/2000/svg">
<path d="M96.3333 3.33324C92.8666 6.79991 92.8666 11.8666 96.3333 15.3332C98.7333 17.7332 98.8666 18.6666 97.5333 24.3999L96.2 30.9332L86.6 32.3999C76.0666 33.9999 72.3333 36.7999 72.3333 43.1999C72.3333 46.5332 71.1333 47.4666 61.2666 52.3999C48.4666 58.6666 35 70.3999 27.8 81.3333C23.9333 86.9333 21.8 88.9333 17.9333 89.9999C15.2666 90.6666 12.3333 91.7333 11.4 92.3999C8.73328 94.1333 4.33328 107.2 2.19995 120.133C0.199951 131.733 0.199951 132.933 2.19995 136C3.53328 137.867 5.93328 140.133 7.66662 140.933C9.66662 141.867 11 143.867 11.6666 147.067C14.4666 162.4 25.1333 177.2 39.1333 185.6C60.3333 198.267 95.2666 203.467 127 198.8C164.867 193.067 189.267 174.4 194.333 147.067C195 143.867 196.333 141.867 198.333 140.933C204.733 138 206.067 134 204.333 122.4C202.333 109.733 198.333 96.1333 195.533 93.4666C194.467 92.2666 191.133 90.7999 188.333 89.9999C184.067 88.9333 182.067 87.1999 178.2 81.3333C171 70.3999 157.533 58.6666 144.733 52.3999C134.867 47.4666 133.667 46.5332 133.667 43.1999C133.667 36.7999 129.933 33.9999 119.4 32.3999L109.8 30.9332L108.467 24.3999C107.133 18.6666 107.267 17.7332 109.667 15.3332C115.133 9.86658 111 0.666575 103 0.666575C100.733 0.666575 97.8 1.86657 96.3333 3.33324ZM105.4 9.19991C106.067 12.3999 103 15.9999 101.533 13.7332C100.867 12.7999 100.333 10.6666 100.333 9.06658C100.333 5.59991 104.733 5.73324 105.4 9.19991ZM106.733 32.5332C109.533 35.0666 112.867 36.5332 117.133 37.1999C123.533 37.9999 128.333 41.0666 128.333 43.9999C128.333 46.9332 134.067 52.9332 138.867 54.9332C152.2 60.5332 165.4 71.3333 173.8 83.5999C177.667 89.3333 180.467 91.8666 185.667 94.1333C193.133 97.4666 194.867 100.533 198.333 117.733C201 130.8 201.133 130.267 195.133 137.2C192.067 140.667 189.667 145.2 189.133 148.267C187.533 156.267 179.667 169.2 172.467 175.2C164.467 181.867 152.467 187.6 138.333 191.6C129.133 194.133 124.2 194.533 103 194.533C81 194.533 77.1333 194.267 67 191.467C39 183.733 20.7333 167.733 16.8666 147.733C16.4666 145.333 13.6666 140.667 10.6 137.2L5.26662 131.067L6.86662 122.267C8.73328 111.867 12.0666 100.8 14.2 98.1333C15 97.1999 18.0666 95.1999 21.1333 93.9999C25 92.2666 28.3333 89.1999 32.6 83.1999C40.3333 72.3999 49.9333 64.1332 62.0666 57.5999C73.8 51.3332 75.8 49.5999 77.6666 43.8666C78.8666 40.3999 80.2 39.0666 84.0666 37.9999C86.7333 37.3332 90.3333 36.6666 92.0666 36.6666C93.8 36.6666 96.7333 34.9332 98.7333 32.7999C100.733 30.6666 102.467 28.9332 102.467 28.7999C102.6 28.7999 104.6 30.3999 106.733 32.5332Z" fill="white"/>
<path d="M82.3334 65.5998C59.1334 71.5998 40.4667 89.1998 32.0667 112.667C28.7334 122.133 27.4 139.867 29.5334 146.4C36.7334 167.867 68.2 181.333 107.8 180C140.333 178.933 164.2 168.8 173.667 152.133C177.133 146.267 177.667 144 177.667 134.933C177.667 116.533 170.067 98.5332 156.467 84.6665C142.067 69.9998 125.667 63.5998 102.867 63.7332C95.2667 63.7332 86.0667 64.5332 82.3334 65.5998ZM122.867 70.6665C151.8 78.2665 172.2 104.267 172.733 134.133C172.867 143.333 172.6 144.933 169 150.8C161.933 162.133 147.8 169.6 126.067 173.333C88.4667 179.867 48.8667 170 37.1334 150.933C33.6667 145.2 33.2667 143.467 33.2667 134.133C33.6667 104.667 53.8 78.5332 82.6 70.6665C91.2667 68.2665 113.933 68.2665 122.867 70.6665Z" fill="white"/>
<rect x="60" y="90" width="85" height="7" rx="3.5" fill="#D9D9D9"/>
<rect x="38" y="129" width="131" height="7" rx="3.5" fill="#D9D9D9"/>
<rect x="38" y="142" width="39" height="7" rx="3.5" fill="#D9D9D9"/>
<rect x="81" y="142" width="39" height="7" rx="3.5" fill="#D9D9D9"/>
<rect x="125" y="142" width="39" height="7" rx="3.5" fill="#D9D9D9"/>
<rect x="43" y="103" width="69" height="7" rx="3.5" fill="#D9D9D9"/>
<rect x="38" y="116" width="95" height="7" rx="3.5" fill="#D9D9D9"/>
<rect x="114" y="103" width="48" height="7" rx="3.5" fill="#D9D9D9"/>
<rect x="135" y="116" width="34" height="7" rx="3.5" fill="#D9D9D9"/>
</svg>
