<svg version="1.0" xmlns="http://www.w3.org/2000/svg" width="400" height="252" viewBox="0 0 300 189" fill="white"><path d="M78.7 41C69.2 44.7 58 55.2 52.9 65.2c-1.4 2.7-3.4 4.5-7.2 6.4-2.8 1.5-8.2 5.7-12 9.5-7.4 7.4-11.4 14.7-12.3 22.6-1.2 9.7 6.2 22 15.9 26.4 6.6 2.9 16.9 2.6 23.7-.8 6.7-3.3 17.7-14 21.7-21.2 2.3-4 4.4-6.1 8.4-8.4 7-3.9 17.8-14.9 20.9-21.2 1.7-3.5 2.6-7.2 2.8-12.3.4-6.3.1-7.9-2.3-12.8-2.9-5.8-8.4-10.7-14.8-13.1-4.8-1.7-13.6-1.4-19 .7m19.8 3.4c12.8 5.9 17.7 20.4 11.3 33.2-3.7 7.5-16.9 19.7-23.5 21.8-4.1 1.3-2.4-1.2 2.4-3.5 5.4-2.6 16.2-12.9 18.7-17.8 2.7-5.1 3.2-13.3 1.2-18.4-2-5.4-4.7-8-11-10.8-8.5-3.7-16.6-1.3-27 8.2-9.7 8.9-12.5 15.8-10.5 26.4 1.1 6.4 3.4 9.6 7.9 11.5 3.5 1.4 3.9 5.4.5 4.4C63.3 97.7 55 88.9 55 84.9c0-3-1.6-3-5.6-.1-6.2 4.5-13.3 13-14.4 17.3-2.4 8.9 3.9 17.9 12.6 17.9 2.5 0 6.1-.9 8.2-1.9 4.5-2.3 13.5-10.8 16.2-15.3 3.4-5.6 2.2-14.9-2.4-18.7-2.2-1.9-2-3.7.2-2 1 .8.5.2-1-1.4-3.1-3-6.4-3.7-5.4-1.1.3.9.6 2 .6 2.4 0 .5 2.1 3.5 4.6 6.5 4.8 6 5.1 7.7.7 5.4-3.2-1.7-7-7.3-7.9-11.5-1.1-5.7 2.2-13.9 8.4-20.6 10.3-11.2 18.4-14.2 27.6-10.4 3.4 1.4 7.6 5.9 7.6 8.2 0 .8.9 2.3 2.1 3.5 3.9 3.9.3 13.2-8.8 22.3-5.7 5.8-13.4 10.9-14.5 9.8-1.6-1.6.7-4.9 6.9-10.1 10.4-8.6 13.9-16.7 10.5-24.5-2.3-5.1-5.5-7.6-11-8.3-4.3-.6-8.3 1.1-14.5 6.1C72.3 61.1 65 69.9 65 71.3c0 .3 1 .7 2.3 1.1 4.1 1 10.6 6.4 12.7 10.6 1.5 3 2.1 6.3 2.3 12.3.2 7.3-.1 8.7-2.5 12.8-3.5 6-15.2 16.9-21.1 19.7-8.1 3.8-21.1 2.2-25.6-3.1-.8-1.1.5-.7 3.5 1 6.3 3.6 14 3.8 20.4.6 10.1-5 23-18.3 23-23.7 0-1.4-.8-.8-2.9 2.5-3.7 5.8-13.6 15.1-19 17.8-6.1 3.1-13.1 3.8-18.5 1.7-10.7-4.1-16.5-14.8-13.6-25.2 2.4-8.3 13.4-20.5 23.2-25.5 4.7-2.4 4.8-2.4 4.8.6 0 1.5-.8 2.9-2.2 3.6-8.4 4.3-18 14.5-19.3 20.5-.5 2.3 0 1.8 2.3-2.2 3.5-5.8 12.1-14 17-16.1 3-1.3 3.2-1.6 3.2-6.6 0-6.4 2.9-11.4 11.1-19.6 11.8-11.7 21.7-14.7 32.4-9.7m-4.1 11.7c2.5 1.2 5.6 6.3 5.6 9.3C100 70.1 89.3 84 85.7 84c-.9 0-1.7-.4-1.7-.9 0-1.5-8.2-10.1-11.1-11.7-1.6-.8-2.9-1.9-2.9-2.4 0-1.6 9.5-10.5 13.1-12.3 4-1.9 7.8-2.1 11.3-.6M54.1 89.2c1.7 3.3 7 8.8 10.2 10.4 1.5.8 2.7 1.9 2.7 2.4 0 1.6-6.1 8-10.5 11-5.3 3.6-8.9 4.3-12.6 2.5-5.8-3.1-7.5-9.3-4.3-16C41.2 96 50.1 87 51.9 87c.6 0 1.5 1 2.2 2.2m188.3-16.7c-1.6.7-4.9 3.5-7.2 6.2-4.5 5.1-4.8 5.4-13.5 13.6-7.1 6.8-8.8 11.6-6.2 18.2 3.2 8.5 13.2 12.3 21.2 8.1 3.4-1.7 11.3-9.2 11.3-10.6 0-.5 2.6-2.9 5.8-5.4C261 97 264 91.9 264 85.6c0-5.8-2.1-10.1-6.3-12.6-3.7-2.3-10.7-2.5-15.3-.5m13.7 3.2c3.1 1.9 5.9 6.7 5.9 10.4 0 3.3-4.4 10.2-8.5 13.3-2 1.6-3.8 2.6-4.1 2.3-.2-.2 1.3-1.6 3.4-3 2-1.5 4.5-4 5.5-5.6 2.5-4.2 2.1-5-.6-1-1.2 1.8-4.1 4.7-6.4 6.4-2.2 1.6-4.4 4-4.7 5.3-.4 1.3-1.1 2-1.7 1.6-.6-.3-.9 0-.8.7.2.8-.2 2.4-.9 3.5-1.4 2.6-9.9 8.4-12.1 8.4-.9 0 .2-.9 2.4-1.9s5.6-3.6 7.5-5.7l3.5-3.9-3.5 3.1c-5.8 5.1-8.3 6.4-12.3 6.4-3.1 0-4.6-.7-7.3-3.4-3.8-3.8-4.4-7.7-2-12.5 1.8-3.3 8.6-9.6 11.5-10.6 1.2-.3 2.1-1.3 2.1-2.1 0-1.8 6.7-9.2 10.5-11.6 3.8-2.3 8.8-2.3 12.6-.1"/><path d="M244.5 78.9c-3.6 2.1-8.1 7.2-9 10-.3 1.1-1.5 2.3-2.5 2.6-1.1.3-1.9 1.1-1.7 1.7.1.6-.4 1.3-1.2 1.6-1 .3-1.1 0-.5-.9.7-1.2.5-1.2-.9 0-.9.7-1.5 1.7-1.2 2.1s-.2 1.3-1 2-1.5.9-1.5.5-.6-.2-1.4.4c-1.9 1.6-1.2 9.7 1 12.2 2 2.3 5.5 2.4 9.3.4 3.3-1.6 7.7-6.5 8.6-9.5.7-2.3-2.3-9.1-4.3-9.8-1.9-.6-1.4 1.4 1.2 4.5 2 2.4 2.1 3 1 4.1-2.8 2.6-8.5-3.6-6.9-7.5.7-1.7.8-1.7 1.5.2.5 1.6.8 1.2 1.4-2 1-4.9 3.6-8.7 8-11.4 4.3-2.7 8.6-2.7 12.2 0l2.9 2.1-2.8-2.6c-3.4-3.1-7.9-3.4-12.2-.7m-10.4 22.7 2.4 2.6-2.8 2.4c-3.3 2.8-5.3 3-6.5.6-1.1-2-.6-4 1.6-6.5 2-2.2 2.4-2.2 5.3.9"/><path d="M242.5 83.1c-2.5 2.3-4.5 4.4-4.5 4.8 0 .3 1.4 1.4 3.1 2.4 1.7.9 3.6 3.1 4.2 4.7.6 1.7 1.7 3 2.3 3 1.8 0 8.3-7.6 9-10.6.9-3.6-2.3-7.8-6.4-8.2-2.5-.3-4 .5-7.7 3.9m10.4.7c.7 1.4.6 2.5-.6 4.3-2.6 3.7-3.6 4-6 1.7-2.9-2.7-2.9-4.3-.1-6.2 3-2.1 5.5-2 6.7.2M185.5 76c-1.3 1.4-1.6 2.8-1.1 5.5l.7 3.5h-65.8l-2.1 2.3c-2.9 3.1-2.8 5.1.4 7.6 2.6 2 3.8 2.1 35 2.1H185l-.6 3.8c-.7 4.6 2 7.8 5.9 6.8 3.3-.8 15.7-13.9 15.7-16.6 0-2.9-13.8-17-16.6-17-1.2 0-2.9.9-3.9 2m11 8 6.9 7-6.9 7c-3.8 3.8-7.3 7-7.8 7-.4 0-1.1-.8-1.4-1.7-.5-1.2.7-2.9 4-5.9 2.6-2.3 4.7-4.4 4.7-4.6 0-.1-17.3-.2-38.5 0-38.1.2-38.5.2-38.5-1.8s.5-2 38.8-2l38.7-.1-4.7-4c-4.5-3.9-6.3-7.9-3.5-7.9.7 0 4.4 3.1 8.2 7"/></svg>